<svg xmlns="http://www.w3.org/2000/svg" xmlns:xlink="http://www.w3.org/1999/xlink" id="Layer_1" x="0px" y="0px" viewBox="0 0 626.6 235.53" style="enable-background:new 0 0 626.6 235.53;" xml:space="preserve">
<style type="text/css">
	.aaaaa3{fill:#FFFFFF;}
</style>
<path class="aaaaa3" d="M0,0.02L197.9,0l0.09,197.75L0.1,197.87L0,0.02z M63.87,65.09c0.37-0.05,0.53-0.1,0.69-0.09  c0.52,0.03,1.04,0.08,1.56,0.11c2.6,0.16,5.06,0.86,7.37,2.07c1.92,1.01,3.62,2.33,5.21,3.8c2.35,2.16,4.05,4.74,5.14,7.74  c0.77,2.13,1.37,4.3,1.86,6.51c0.57,2.55,1.37,5.02,2.31,7.46c1.06,2.72,2.72,4.99,4.92,6.89c0.58,0.5,1.17,0.99,1.79,1.44  c4.25,3.12,9,5.07,14.18,5.99c1.68,0.3,3.38,0.45,5.09,0.38c1.78-0.07,3.53-0.33,5.25-0.76c2.54-0.64,5.01-1.47,7.27-2.81  c5.29-3.13,9.3-7.47,11.97-13c1.48-3.08,2.37-6.32,2.15-9.77c-0.3-4.68-2.54-8.07-6.94-9.91c-1.81-0.76-3.72-1.14-5.68-1.25  c-2.33-0.13-4.66-0.04-6.97,0.35c-0.44,0.07-0.9,0.08-1.35,0.08c-0.27,0-0.44-0.2-0.44-0.48c0-0.14,0.02-0.28,0.04-0.41  c0.22-1.75,1.06-3.14,2.41-4.24c0.93-0.76,1.97-1.3,3.09-1.7c2.14-0.78,4.36-1.16,6.63-1.27c3.84-0.18,7.64,0.18,11.44,0.7  c2.48,0.34,4.95,0.75,7.41,1.17c2.84,0.48,5.68,0.98,8.48,1.68c2.26,0.56,4.49,1.23,6.6,2.25c1.48,0.72,2.85,1.6,4.03,2.75  c0.9,0.88,1.7,1.83,2.24,2.99c1.43,3.05,2.02,6.26,1.84,9.62c-0.19,3.47-0.62,6.92-0.99,10.38c-0.36,3.35-0.77,6.7-1.04,10.06  c-0.37,4.58-0.3,9.17,0.2,13.74c0.51,4.69,1.57,9.24,3.17,13.67c1.81,5.02,4.26,9.73,7.04,14.28c0.68,1.11,1.46,2.08,2.52,2.87  c1.5,1.12,2.93,2.35,4.39,3.53c0.15,0.12,0.3,0.32,0.59,0.15c0.12-0.37,0.06-0.79,0.06-1.2c0-46.9,0-93.8,0-140.7  c0-0.35,0.01-0.7-0.01-1.04c-0.01-0.17-0.08-0.33-0.13-0.55c-0.5,0-0.99-0.01-1.47-0.01c-59.16,0-118.32,0-177.48,0  c-0.31,0-0.63-0.01-0.94,0c-0.2,0.01-0.4,0.04-0.62,0.07c-0.14,0.52-0.09,1.01-0.09,1.49c0,27.78,0,55.56,0,83.34  c0,0.31,0,0.63,0.01,0.94c0.01,0.16-0.02,0.36,0.25,0.44c0.12-0.07,0.26-0.16,0.4-0.26c2.66-1.96,5.33-3.9,7.97-5.88  c4.3-3.25,8.66-6.41,13.12-9.44c2.91-1.97,5.91-3.8,8.94-5.57c0.26-0.15,0.53-0.27,0.81-0.4c0.04,0.14,0.09,0.21,0.07,0.26  c-0.05,0.24-0.1,0.47-0.18,0.7c-1.41,4.13-3.22,8.06-5.71,11.66c-2.73,3.96-5.83,7.62-9.1,11.13c-3.72,4-7.7,7.74-11.69,11.47  c-0.94,0.88-1.9,1.74-2.96,2.47c-0.49,0.33-0.94,0.72-1.42,1.06c-0.34,0.24-0.51,0.52-0.51,0.95c0.02,1.67,0.01,3.34,0.01,5.01  c0,0.16-0.04,0.35,0.23,0.48c0.22-0.14,0.49-0.29,0.73-0.47c1.48-1.09,2.96-2.19,4.45-3.28c1.15-0.85,2.23-1.77,3.26-2.77  c4.64-4.52,8.94-9.34,12.98-14.41c2.43-3.05,4.73-6.19,6.74-9.53c1.11-1.85,2.17-3.73,2.86-5.78c1.05-3.09,2.02-6.21,2.45-9.47  c0.07-0.56,0.32-0.98,0.84-1.23c0.09-0.04,0.18-0.1,0.28-0.15c2.24-1.04,4.47-2.09,6.71-3.12c0.19-0.09,0.39-0.14,0.64-0.23  c0.09,0.25,0.2,0.46,0.25,0.69c0.37,1.74,0.56,3.5,0.61,5.27c0.14,5.15-0.6,10.19-1.96,15.14c-1.54,5.62-3.76,10.97-6.43,16.14  c-3.6,6.97-7.95,13.46-12.76,19.65c-2.93,3.76-6.02,7.38-9.24,10.89c-1.72,1.87-3.41,3.75-5.01,5.73c-2.29,2.84-4.68,5.61-7.05,8.38  c-0.41,0.48-0.61,0.96-0.58,1.6c0.04,1.04,0.01,2.09,0.01,3.13c0,0.23,0.04,0.45,0.08,0.75c0.43-0.14,0.66-0.4,0.9-0.62  c4.04-3.62,8.09-7.23,12.11-10.87c0.85-0.77,1.67-1.58,2.43-2.43c2.27-2.54,4.55-5.08,6.73-7.69c4.83-5.77,9.2-11.87,13-18.37  c3.32-5.69,6.13-11.61,8.17-17.88c1.93-5.95,3.12-12.03,3.22-18.31c0.04-2.44-0.04-4.86-0.4-7.28c-0.23-1.52-0.57-3-0.97-4.48  c-0.05-0.18-0.04-0.39-0.05-0.59c0.32-0.11,0.58-0.21,0.85-0.29c0.87-0.24,1.74-0.48,2.62-0.69c0.68-0.16,1.36-0.31,2.05-0.39  c1.35-0.16,1.46-0.11,2.32,0.93c1.51,1.83,2.85,3.76,3.83,5.94c1.2,2.66,2.34,5.35,3.07,8.19c1,3.89,1.44,7.86,1.56,11.86  c0.11,3.66-0.15,7.3-0.61,10.92c-0.52,4.07-1.33,8.09-2.36,12.06c-1.59,6.13-3.57,12.13-6.1,17.94c-2.33,5.35-4.68,10.7-7.34,15.9  c-2.31,4.52-4.84,8.92-7.44,13.27c-3.43,5.73-7.06,11.33-10.73,16.9c-1.89,2.88-3.77,5.76-5.65,8.64c-0.2,0.31-0.47,0.59-0.54,1.06  c0.26,0.02,0.45,0.06,0.64,0.06c0.8,0.01,1.6,0.01,2.4,0c1.14-0.01,0.93,0.12,1.69-0.74c1.96-2.22,3.92-4.43,5.85-6.66  c1.07-1.23,2.14-2.47,3.13-3.77c3.62-4.76,7.02-9.68,10.13-14.8c1.25-2.05,2.43-4.14,3.43-6.32c2.24-4.9,4.48-9.8,6.69-14.71  c1.21-2.69,2.49-5.36,3.52-8.13c3.33-9.02,5.8-18.27,6.82-27.87c0.35-3.29,0.51-6.58,0.45-9.89c-0.06-3.38-0.35-6.73-0.93-10.06  c-0.52-2.95-1.18-5.86-2.33-8.63c-0.55-1.32-1.08-2.63-1.64-3.95c-1.15-2.7-2.58-5.24-4.5-7.47C64.46,65.94,64.23,65.59,63.87,65.09  z"></path>
<g>
	<path class="aaaaa3" d="M238.69,84.63c12.75-0.6,13.95-5.72,13.95-17.88V19.79c0-11.44-2.03-15.38-13.95-15.97V2.75h37.67   c20.5,0,36.71,4.53,36.47,22.17c0,10.01-7.87,16.69-17.05,19.67c3.1,6.2,6.32,11.92,10.61,18.24   c11.2,16.45,16.93,21.69,25.39,21.81l-0.12,1.07c-3.34,0.6-7.99,1.07-11.44,1.07c-10.73,0-17.04-2.74-22.05-7.63   c-3.7-3.7-6.91-8.58-10.25-14.42c-3.22-5.48-6.32-11.68-8.7-16.45c-2.74,0-6.91-0.12-9.3-0.48v19.19c0,11.8,1.91,16.93,13.23,17.64   v1.07c-8.94-0.12-14.18-0.36-22.41-0.36c-7.75,0-13.47,0.12-22.05,0.36L238.69,84.63L238.69,84.63z M288.64,42.08   c4.05-3.22,6.08-8.34,6.08-15.38c0-14.54-7.75-22.77-24.44-22.41c-0.12,3.22-0.36,7.87-0.36,13.83v28.37   C278.39,46.73,284.58,45.3,288.64,42.08z"></path>
	<path class="aaaaa3" d="M327.37,57.81c0-17.05,10.61-28.96,28.96-28.96c18.48,0,29.08,12.16,29.08,28.96   c0,17.05-10.73,29.2-29.08,29.2C338.1,87.02,327.37,74.86,327.37,57.81z M368.73,57.81c0-15.38-2.98-27.65-12.4-27.65   c-9.3,0-12.28,12.28-12.28,27.65c0,15.5,2.98,27.77,12.28,27.77C365.75,85.59,368.73,73.31,368.73,57.81z"></path>
	<path class="aaaaa3" d="M428.33,79.75c4.05,0,7.27-0.72,11.8-2.15l0.36,1.19c-6.2,3.34-13.35,6.68-19.79,8.34   c-15.85,0.6-27.77-7.87-27.77-28.25c0-17.64,12.28-30.04,28.73-30.04c8.94,0,18.12,2.98,18.12,11.09c0,4.65-3.81,7.99-9.65,8.22   l-1.55-1.07c-1.55-8.94-4.89-16.81-9.89-16.81c-8.58,0-10.73,10.97-10.73,20.38C407.95,68.3,414.38,79.75,428.33,79.75z"></path>
</g>
<g>
	<g>
		<path class="aaaaa3" d="M239.29,145.47c0-29.08,19.43-42.91,44.82-42.91c5.96,0,12.4,0.48,19.67,2.74c6.2,1.91,8.22,4.29,8.7,9.89    c0.24,2.38,0.71,6.4,0.11,16.77h-1.19c-4.65-17.4-13.1-27.97-27.65-27.97c-17.64,0-24.55,17.4-24.55,40.88    c0,25.63,5.96,42.08,25.98,42.08c12.87,0,22.41-7.55,27.89-25.19h1.07c-0.6,9.77-1.67,13.27-2.15,16.01    c-1.19,5.36-4.05,6.79-9.77,8.34c-5.96,1.55-11.32,2.26-18,2.26C255.98,188.38,239.29,173,239.29,145.47z"></path>
		<path class="aaaaa3" d="M320.58,175.39c0-7.39,3.1-11.44,7.51-14.07c6.56-2.15,14.78-4.29,22.17-5.96c0-0.95,0-2.86-0.12-3.81    c0-5.13-0.6-8.82-1.67-11.32c-1.67-4.41-4.41-5.84-8.11-6.08c-1.07-0.12-2.26-0.12-3.46,0l-0.95,1.07    c-0.36,4.53-0.24,9.42,0.36,13.23l-1.55,1.07c-1.07,0.36-2.62,0.6-3.69,0.6c-5.01,0-7.63-2.98-7.63-6.44    c0-4.65,4.65-7.15,10.85-10.01c4.53-2.15,10.25-3.46,14.78-3.46c9.3,0,16.33,4.89,16.33,18.83c0,6.2-0.24,16.09-0.12,21.69    c0,6.67,1.91,10.73,6.79,10.73h3.69l0.24,0.72l-16.81,5.96c-2.5-0.48-4.65-1.31-6.2-3.1c-1.19-1.31-2.38-3.58-2.5-6.32    c-3.7,5.01-8.22,9.06-15.85,9.3C326.78,188.14,320.7,183.73,320.58,175.39z M350.14,175.63c0-3.22,0.12-11.8,0.12-19.07    c-3.81,1.31-8.34,2.86-11.09,4.29c-2.38,1.55-4.29,6.2-4.17,11.44c0.12,6.56,3.22,9.54,7.03,9.54    C346.21,181.7,350.14,178.72,350.14,175.63z"></path>
		<path class="aaaaa3" d="M375.05,219.37c9.54-0.83,10.25-5.84,10.25-14.42v-51.61c0-6.08-0.6-11.68-2.38-13.83l-7.39-1.79l-0.12-0.83    c1.67-0.48,23-5.96,24.55-6.56l0.6,0.72c-0.36,2.5-0.48,9.06-0.48,9.54c2.74-2.5,8.58-6.79,11.8-8.7    c2.03-0.72,4.29-1.31,7.27-1.31c10.13,0,19.91,8.46,19.91,26.82c0,22.29-14.07,30.63-28.37,30.63c-4.65,0-7.99-1.07-10.37-2.98    v19.91c0,9.89,2.03,13.47,12.04,14.42v1.07c-6.44-0.24-13.35-0.36-18.71-0.36c-5.6,0-12.04,0-18.59,0.36L375.05,219.37    L375.05,219.37z M423.21,160.25c0-14.07-5.24-21.1-14.54-20.98c-2.98,0.36-5.84,1.07-8.34,2.26v30.39    c0,8.7,2.98,14.42,10.01,14.42C419.04,186.35,423.21,175.63,423.21,160.25z"></path>
		<path class="aaaaa3" d="M445.02,185.88c7.87-0.6,10.13-2.86,10.13-13.11v-19.43c0-5.72-0.36-11.56-2.26-13.83l-7.39-1.79l-0.12-0.83    c1.79-0.48,23.24-6.08,24.44-6.56l0.72,0.72c-0.24,2.38-0.24,9.77-0.24,16.45v25.15c0,10.25,1.55,12.52,10.01,13.23v1.07    c-6.32-0.24-11.2-0.36-16.93-0.36c-5.72,0-12.75,0.24-18.36,0.36L445.02,185.88L445.02,185.88z M451.81,112.57    c0-5.01,4.05-9.18,9.42-9.18c5.36,0,9.42,4.17,9.42,9.18c0,5.13-4.05,9.18-9.42,9.18C455.87,121.75,451.81,117.7,451.81,112.57z"></path>
		<path class="aaaaa3" d="M490.79,164.9v-27.3h-7.75l-0.24-1.07c9.42-5.01,18.12-13.83,22.53-20.38l1.43,0.72    c-0.72,3.81-0.83,8.94-0.83,15.26l18.12-0.72l-1.55,6.32l-16.57-0.12v27.89c0,11.92,5.48,15.14,12.75,15.14    c2.38,0,5.72-0.36,8.34-0.95l0.24,0.72c-4.65,2.98-9.06,5.48-14.07,7.51C495.08,188.26,490.79,182.66,490.79,164.9z"></path>
		<path class="aaaaa3" d="M529.29,175.39c0-7.39,3.1-11.44,7.51-14.07c6.56-2.15,14.78-4.29,22.17-5.96c0-0.95,0-2.86-0.12-3.81    c0-5.13-0.6-8.82-1.67-11.32c-1.67-4.41-4.41-5.84-8.11-6.08c-1.07-0.12-2.26-0.12-3.46,0l-0.95,1.07    c-0.36,4.53-0.24,9.42,0.36,13.23l-1.55,1.07c-1.07,0.36-2.62,0.6-3.7,0.6c-5.01,0-7.63-2.98-7.63-6.44    c0-4.65,4.65-7.15,10.85-10.01c4.53-2.15,10.25-3.46,14.78-3.46c9.3,0,16.33,4.89,16.33,18.83c0,6.2-0.24,16.09-0.12,21.69    c0,6.67,1.91,10.73,6.79,10.73h3.69l0.24,0.72l-16.81,5.96c-2.5-0.48-4.65-1.31-6.2-3.1c-1.19-1.31-2.38-3.58-2.5-6.32    c-3.7,5.01-8.22,9.06-15.85,9.3C535.49,188.14,529.41,183.73,529.29,175.39z M558.85,175.63c0-3.22,0.12-11.8,0.12-19.07    c-3.81,1.31-8.34,2.86-11.09,4.29c-2.38,1.55-4.29,6.2-4.17,11.44c0.12,6.56,3.22,9.54,7.03,9.54    C554.92,181.7,558.85,178.72,558.85,175.63z"></path>
		<path class="aaaaa3" d="M610.58,172.77c0,10.13,1.79,12.52,10.37,13.11v1.07c-6.56-0.24-11.68-0.36-17.28-0.36    c-5.72,0-12.75,0.24-18.59,0.36v-1.07c8.34-0.6,10.49-2.86,10.49-13.11v-50.18c0-5.72-0.48-11.44-2.38-13.71l-7.39-1.79    l-0.12-0.95c1.79-0.48,23.6-6.56,24.79-7.03l0.72,0.72c-0.48,3.1-0.6,12.99-0.6,17.52L610.58,172.77L610.58,172.77z"></path>
	</g>
</g>
<g>
	<path class="aaaaa3" d="M484.76,207.66v5.75c0.77-0.7,2.27-1.79,3.06-2.27c0.57-0.22,1.18-0.35,1.98-0.35c3,0,5.3,2.43,5.3,7.18   c0,5.27-3.19,8.3-8.14,8.3c-2.59,0-4.79-0.45-6.54-1.15c0.22-0.96,0.29-2.23,0.29-3.7v-12.74c0-1.66-0.13-3.13-0.61-3.7l-1.98-0.48   l-0.03-0.26c0.45-0.1,6.23-1.72,6.64-1.85l0.16,0.19C484.8,203.45,484.76,206.26,484.76,207.66z M490.89,218.77   c0-3.77-1.4-5.68-3.89-5.65c-0.8,0.1-1.6,0.29-2.23,0.61v8.65c0,2.23,0.67,3.48,2.55,3.48   C489.97,225.86,490.89,222.51,490.89,218.77z"></path>
	<path class="aaaaa3" d="M496.13,232.21l0.19-0.13c0.7,0.41,1.31,0.64,2.59,0.61c1.85-0.03,4.02-1.24,5.68-5.59   c-1.56-3.48-4.18-8.91-5.81-12.19c-1.47-2.97-2.01-3.45-2.97-3.58v-0.29c1.15,0.06,2.65,0.1,4.12,0.1c1.53,0,3.1-0.03,4.53-0.1   v0.29c-1.76,0.19-2.11,1.18-1.25,3.29c0.96,2.23,2.33,5.27,3.48,7.53c1.05-2.55,2.17-5.27,2.87-7.5c0.77-2.33-0.16-3.13-2.3-3.32   v-0.29c1.15,0.06,1.72,0.1,3.06,0.1c1.12,0,1.98-0.03,3.19-0.1v0.29c-1.18,0.06-1.82,0.7-3.03,3.35   c-1.34,2.91-4.82,10.85-6.61,15.48c-0.42,1.12-2.04,5.36-5.04,5.36C497.25,235.53,496.07,234.19,496.13,232.21z"></path>
	<path class="aaaaa3" d="M519.98,225.64c3.42-0.16,3.74-1.53,3.74-4.79v-12.58c0-3.06-0.54-4.12-3.74-4.28v-0.29h10.09   c5.49,0,9.83,1.21,9.77,5.94c0,2.68-2.11,4.47-4.57,5.27c0.83,1.66,1.69,3.19,2.84,4.88c3,4.41,4.53,5.81,6.8,5.84l-0.03,0.29   c-0.89,0.16-2.14,0.29-3.06,0.29c-2.87,0-4.57-0.73-5.91-2.04c-0.99-0.99-1.85-2.3-2.75-3.86c-0.86-1.47-1.69-3.13-2.33-4.41   c-0.73,0-1.85-0.03-2.49-0.13v5.14c0,3.16,0.51,4.53,3.54,4.72v0.29c-2.39-0.03-3.8-0.1-6-0.1c-2.07,0-3.61,0.03-5.91,0.1   L519.98,225.64L519.98,225.64z M533.35,214.24c1.09-0.86,1.63-2.23,1.63-4.12c0-3.89-2.07-6.1-6.54-6c-0.03,0.86-0.1,2.11-0.1,3.7   v7.6C530.61,215.48,532.27,215.1,533.35,214.24z"></path>
	<path class="aaaaa3" d="M543.73,218.45c0-4.56,2.84-7.76,7.76-7.76c4.95,0,7.79,3.26,7.79,7.76c0,4.57-2.87,7.82-7.79,7.82   C546.6,226.27,543.73,223.02,543.73,218.45z M554.81,218.45c0-4.12-0.8-7.41-3.32-7.41c-2.49,0-3.29,3.29-3.29,7.41   c0,4.15,0.8,7.44,3.29,7.44C554.01,225.89,554.81,222.6,554.81,218.45z"></path>
	<path class="aaaaa3" d="M570.77,224.33c1.09,0,1.95-0.19,3.16-0.57l0.1,0.32c-1.66,0.89-3.58,1.79-5.3,2.23   c-4.25,0.16-7.44-2.11-7.44-7.57c0-4.72,3.29-8.04,7.69-8.04c2.39,0,4.85,0.8,4.85,2.97c0,1.25-1.02,2.14-2.59,2.2l-0.41-0.29   c-0.42-2.39-1.31-4.5-2.65-4.5c-2.3,0-2.87,2.94-2.87,5.46C565.31,221.26,567.03,224.33,570.77,224.33z"></path>
	<path class="aaaaa3" d="M576.58,225.51c-0.86-0.67-2.04-2.33-2.71-3.64l0.26-0.38c1.69,1.56,3.48,2.11,5.36,2.11   c2.84,0,4.79-1.6,4.82-4.34c0-3.06-2.11-4.28-5.91-4.21c0,0,0.29-0.99,0.96-1.02c3.26-0.22,4.76-1.66,4.76-4.37   c0-2.36-1.56-3.51-3.7-3.51c-1.88,0-3.8,0.83-5.24,2.33l-0.26-0.26c0.61-1.15,1.56-2.59,2.36-3.51c1.21-0.86,2.71-1.37,4.69-1.37   c4.18,0,6.58,1.92,6.54,5.2c0,3-2.71,4.82-5.65,5.27c3.93,0.32,6.19,2.3,6.16,5.52c0,4.44-3.58,6.99-8.52,6.99   C578.97,226.31,577.66,226.02,576.58,225.51z"></path>
	<path class="aaaaa3" d="M591.55,215.61c0.03-6.64,4.31-12.07,10.38-12.42c1.53,0.19,2.78,0.67,4.31,1.09l-0.1,0.35   c-6.58-0.54-9.32,3.8-9.77,9.39c0.93-0.67,2.71-1.56,4.12-1.88c5.2-0.22,6.99,3.19,6.96,6.42c0,5.17-3.58,7.76-7.85,7.76   C593.72,226.31,591.55,221.26,591.55,215.61z M602.63,219.28c0-3.03-0.99-5.36-3.86-5.36c-0.86,0.03-1.79,0.38-2.43,0.67   c-0.06,1.12-0.06,2.62-0.03,3.77c0.16,3,0.73,7.57,3.29,7.57C601.8,225.92,602.6,222.19,602.63,219.28z"></path>
	<path class="aaaaa3" d="M609.4,214.78c0-6.7,3.38-11.46,8.59-11.46c5.17,0,8.62,4.79,8.62,11.46c0,6.7-3.45,11.52-8.62,11.52   C612.78,226.31,609.4,221.49,609.4,214.78z M621.62,214.78c0-6.26-0.8-11.08-3.64-11.08s-3.64,4.82-3.64,11.08   c0,6.23,0.8,11.14,3.64,11.14C620.83,225.92,621.62,221.01,621.62,214.78z"></path>
</g>
</svg>