<svg width="3000" height="1358" viewBox="0 0 3000 1358" fill="none" xmlns="http://www.w3.org/2000/svg">
<path d="M575.486 652.083V651.389L454.514 528.75H502.083C513.872 528.734 525.42 525.414 535.417 519.167C544.27 513.025 551.483 504.806 556.422 495.229C561.362 485.653 563.878 475.011 563.75 464.236V402.778C563.793 396.695 562.759 390.653 560.695 384.931C550.648 353.681 530.88 338.056 501.389 338.056H289.931V407.5H473.75V465.417H289.931V529.167H332.083L456.042 652.083H575.486Z" fill="#97D700"/>
<path d="M261.25 651.389L262.153 413.68V337.847H173.056L171.528 339.375V650.555L173.056 652.083H260.625L261.25 651.389Z" fill="#97D700"/>
<path d="M991.25 408.681V344.167L989.722 342.639H721.111V410.208H989.722L991.25 408.681Z" fill="#97D700"/>
<path d="M721.111 532.292L722.569 533.75H966.597L967.917 532.222V467.5L966.597 466.18H722.569L721.111 467.43V532.292Z" fill="#97D700"/>
<path d="M693.264 342.639H609.236L607.708 344.167V648.333L609.236 649.861H693.264V342.639Z" fill="#97D700"/>
<path d="M991.25 648.333V583.889L989.722 582.361H721.111V649.861H989.722L991.25 648.333Z" fill="#97D700"/>
<path d="M1197.36 652.083H1304.17L1259.1 570.694L1258.33 572.083H1257.5L1189.31 444.861L1186.39 439.305L1131.94 341.319H1026.11L1025.42 342.014L1170.14 604.167C1186.34 635.37 1195.42 651.342 1197.36 652.083Z" fill="#97D700"/>
<path d="M1488.89 341.319H1382.36L1274.79 541.528L1327.85 637.292L1490.42 342.847L1488.89 341.319Z" fill="#97D700"/>
<path d="M1905.76 648.333V583.889L1904.17 582.361H1634.38V649.861H1904.17L1905.76 648.333Z" fill="#97D700"/>
<path d="M1905.76 408.681V344.167L1904.17 342.639H1634.38V410.208H1904.17L1905.76 408.681Z" fill="#97D700"/>
<path d="M1635.56 467.5V532.222L1637.08 533.75H1881.11L1882.43 532.222V467.5L1881.11 466.18H1637.08L1635.56 467.5Z" fill="#97D700"/>
<path d="M1606.6 342.639H1523.75L1522.22 344.167V648.333L1523.75 649.861H1606.6V342.639Z" fill="#97D700"/>
<path d="M2244.38 349.167L2190.14 447.222C2200.21 465.764 2214.93 492.986 2234.31 529.167V529.792H2201.39L2189.44 529.167L2177.64 529.792H2144.58L2107.08 597.222H2147.78L2157.43 597.847L2167.85 597.222H2269.86L2273.54 601.597C2290.42 634.097 2299.51 650.208 2300.97 650.208H2407.99L2408.82 649.583L2304.65 459.583C2274.33 403.195 2254.24 366.389 2244.38 349.167Z" fill="#97D700"/>
<path d="M2152.78 457.222L2173.61 418.264L2173.96 418.75L2218.89 337.639H2112.29L2111.67 338.264L1940.14 648.819L1941.67 650.278H2045.83L2152.78 457.222Z" fill="#97D700"/>
<path d="M2823.26 590.139H2555.42V652.083H2823.26L2824.79 650.556V591.458L2823.26 590.139Z" fill="#97D700"/>
<path d="M2502.78 652.083H2527.78V344.583L2526.88 343.75H2441.53L2440 345.278V588.333L2442.15 605.139C2451.94 636.319 2472.22 652.083 2502.78 652.083Z" fill="#97D700"/>
<path d="M2336.39 198.611H2347.22L2357.71 197.222C2377.43 191.204 2387.29 178.588 2387.29 159.375V143.819H623.125L612.639 145.139C593.102 151.25 583.333 163.889 583.333 183.055V198.611H2336.39Z" fill="#97D700"/>
<path d="M1217.36 1084.65C1215.28 1090.42 1213.4 1095.83 1211.39 1101.46H1222.22C1222.85 1101.46 1222.78 1101.11 1222.57 1100.69C1221.11 1095.49 1219.31 1090.28 1217.36 1084.65Z" fill="#97D700"/>
<path d="M1727.5 1084.65C1725.42 1090.42 1723.54 1095.83 1721.53 1101.46H1732.64C1733.26 1101.46 1733.19 1101.11 1732.99 1100.69C1731.25 1095.49 1729.17 1090.28 1727.5 1084.65Z" fill="#97D700"/>
<path d="M1531.94 1095.63H1521.25C1520.07 1095.63 1520 1095.07 1520.07 1094.17C1520.14 1093.26 1520.07 1092.5 1521.25 1092.57H1530.9C1533.4 1092.57 1533.4 1092.57 1532.92 1090.14C1532.1 1086.22 1530.12 1082.63 1527.23 1079.86C1524.35 1077.08 1520.69 1075.24 1516.74 1074.58C1515.56 1074.58 1515 1074.58 1515.07 1075.97C1515.07 1079.44 1515.07 1082.92 1515.07 1086.39C1515.07 1087.64 1514.44 1087.64 1513.54 1087.64C1512.64 1087.64 1511.94 1087.64 1512.01 1086.39C1512.01 1082.92 1512.01 1079.44 1512.01 1075.9C1512.01 1074.65 1511.6 1074.44 1510.49 1074.58C1506.31 1075.25 1502.46 1077.22 1499.48 1080.22C1496.5 1083.21 1494.54 1087.07 1493.89 1091.25C1493.89 1092.29 1493.89 1092.64 1495.07 1092.64H1505.9C1507.22 1092.64 1507.01 1093.4 1506.94 1094.1C1506.87 1094.79 1507.43 1095.76 1505.97 1095.69H1495.56C1493.61 1095.69 1493.61 1095.69 1494.03 1097.71C1494.77 1101.74 1496.74 1105.44 1499.68 1108.3C1502.62 1111.16 1506.37 1113.04 1510.42 1113.68C1511.6 1113.68 1512.01 1113.68 1512.01 1112.43C1512.01 1108.96 1512.01 1105.49 1512.01 1101.87C1512.01 1100.62 1512.57 1100.63 1513.54 1100.63C1514.51 1100.63 1515.07 1100.62 1515.07 1101.87C1515.07 1105.42 1515.07 1108.82 1515.07 1112.57C1515.07 1113.61 1515.07 1113.89 1516.39 1113.68C1520.6 1113.06 1524.51 1111.09 1527.52 1108.08C1530.54 1105.06 1532.5 1101.16 1533.12 1096.94C1533.33 1095.9 1533.06 1095.63 1531.94 1095.63Z" fill="#97D700"/>
<path d="M2513.89 979.167L2503.4 977.778H2216.6L2217.01 977.083H793.056V977.778H426.806V993.333C426.806 1012.5 436.667 1025.14 456.389 1031.25L466.875 1032.64H821.806L915.278 1213.19H2094.93L2188.4 1032.64H2543.68V1017.08C2543.68 997.917 2533.82 985.347 2513.89 979.167ZM1139.44 1069.44V1149.58C1139.44 1150.97 1139.44 1151.39 1137.71 1151.32C1127.85 1151.32 1117.99 1151.32 1108.19 1151.32C1106.6 1151.32 1106.39 1150.83 1106.39 1149.37C1106.39 1122.71 1106.39 1096.11 1106.39 1069.44C1106.39 1067.99 1106.39 1067.64 1104.58 1067.64H1077.15C1075.83 1067.64 1075.56 1067.22 1075.56 1065.97C1075.56 1057.22 1075.56 1048.54 1075.56 1039.86C1075.56 1038.47 1075.56 1038.06 1077.29 1038.06H1168.54C1169.86 1038.06 1170.21 1038.06 1170.21 1039.65C1170.21 1048.47 1170.21 1057.22 1170.21 1066.04C1170.21 1067.29 1170.21 1067.64 1168.61 1067.64H1140.83C1139.93 1068.06 1139.65 1068.47 1139.65 1069.79L1139.44 1069.44ZM1273.4 1151.32H1241.53C1241.32 1151.35 1241.1 1151.34 1240.9 1151.28C1240.69 1151.23 1240.5 1151.13 1240.33 1151C1240.17 1150.87 1240.03 1150.71 1239.92 1150.53C1239.82 1150.34 1239.75 1150.14 1239.72 1149.93C1237.5 1142.99 1235.14 1136.6 1232.78 1129.86C1232.71 1129.41 1232.47 1129.01 1232.1 1128.73C1231.74 1128.46 1231.28 1128.34 1230.83 1128.4C1221.46 1128.4 1212.15 1128.4 1203.06 1128.4C1202.63 1128.36 1202.2 1128.48 1201.85 1128.74C1201.5 1128.99 1201.26 1129.37 1201.18 1129.79C1198.89 1136.74 1196.46 1143.19 1194.24 1149.93C1194.15 1150.37 1193.9 1150.75 1193.54 1151.01C1193.18 1151.27 1192.73 1151.38 1192.29 1151.32H1159.72L1161.04 1147.71C1174.65 1111.69 1188.26 1075.67 1201.88 1039.65C1202.29 1038.61 1202.78 1038.12 1203.96 1038.19H1231.74C1232.15 1038.11 1232.58 1038.2 1232.93 1038.43C1233.28 1038.67 1233.53 1039.03 1233.61 1039.44C1247.5 1076.48 1261.39 1113.29 1275.28 1149.86C1275.14 1151.46 1274.86 1151.67 1273.61 1151.67L1273.4 1151.32ZM1366.39 1133.61C1362.63 1138.95 1357.8 1143.43 1352.2 1146.78C1346.6 1150.13 1340.37 1152.27 1333.89 1153.06C1332.62 1153.07 1331.36 1153.26 1330.14 1153.61H1319.79C1317.71 1152.99 1315.56 1153.06 1313.4 1152.57C1303.58 1150.96 1294.46 1146.5 1287.15 1139.74C1279.84 1132.99 1274.67 1124.24 1272.29 1114.58C1269.35 1105.47 1268.45 1095.82 1269.65 1086.31C1270.85 1076.81 1274.12 1067.68 1279.24 1059.58C1283.26 1053.13 1288.71 1047.68 1295.16 1043.65C1301.61 1039.62 1308.89 1037.11 1316.46 1036.32C1317.44 1036.34 1318.41 1036.15 1319.31 1035.76H1329.93C1332.29 1036.18 1334.58 1036.53 1336.88 1037.01C1343.99 1038.25 1350.72 1041.16 1356.5 1045.49C1362.28 1049.82 1366.95 1055.46 1370.14 1061.94C1372.79 1067.7 1374.36 1073.89 1374.79 1080.21C1374.79 1083.26 1374.79 1083.26 1371.94 1083.26H1344.17C1342.99 1083.26 1342.5 1083.26 1342.43 1081.74C1342.31 1077.5 1340.57 1073.47 1337.57 1070.49C1335.63 1068.61 1333.32 1067.18 1330.78 1066.28C1328.24 1065.38 1325.53 1065.04 1322.85 1065.28C1318.22 1065.53 1313.82 1067.34 1310.37 1070.42C1306.91 1073.5 1304.6 1077.66 1303.82 1082.22C1301.02 1091.8 1301.48 1102.04 1305.14 1111.32C1306.99 1116.28 1310.7 1120.33 1315.49 1122.6C1320.27 1124.87 1325.75 1125.18 1330.76 1123.47C1332.97 1122.83 1334.99 1121.69 1336.68 1120.13C1338.36 1118.58 1339.67 1116.66 1340.49 1114.51C1341.96 1111.12 1342.85 1107.51 1343.13 1103.82C1343.13 1103.33 1343.13 1102.85 1343.13 1102.36C1343.13 1101.87 1343.13 1101.32 1344.24 1101.32H1375C1375.63 1101.32 1376.04 1101.32 1376.04 1102.29C1375.99 1113.53 1372.71 1124.53 1366.6 1133.96L1366.39 1133.61ZM1438.96 1069.44C1438.96 1096.18 1438.96 1122.85 1438.96 1149.58C1438.96 1150.97 1438.96 1151.39 1437.22 1151.32C1427.36 1151.32 1417.5 1151.32 1407.71 1151.32C1406.11 1151.32 1405.9 1150.83 1405.9 1149.37C1405.9 1122.71 1405.9 1096.11 1405.9 1069.44C1405.9 1067.99 1405.56 1067.64 1404.1 1067.64H1376.32C1375 1067.64 1374.65 1067.22 1374.65 1065.97C1374.65 1057.22 1374.65 1048.54 1374.65 1039.86C1374.65 1038.47 1374.65 1038.06 1376.46 1038.06H1467.71C1468.96 1038.06 1469.38 1038.06 1469.38 1039.65C1469.38 1048.47 1469.38 1057.22 1469.38 1066.04C1469.38 1067.29 1469.38 1067.64 1467.85 1067.64H1440.07C1439.51 1068.06 1439.17 1068.47 1439.17 1069.79L1438.96 1069.44ZM1569.58 1151.39H1537.64C1536.67 1151.39 1536.25 1151.39 1535.9 1150.07C1533.68 1143.12 1531.32 1136.74 1528.96 1130C1528.86 1129.51 1528.57 1129.07 1528.16 1128.79C1527.74 1128.5 1527.23 1128.39 1526.74 1128.47H1498.96C1498.72 1128.43 1498.48 1128.44 1498.24 1128.5C1498.01 1128.55 1497.79 1128.66 1497.59 1128.8C1497.4 1128.94 1497.24 1129.12 1497.11 1129.33C1496.99 1129.53 1496.91 1129.76 1496.88 1130C1494.51 1136.94 1492.15 1143.4 1489.93 1150.14C1489.85 1150.54 1489.61 1150.89 1489.28 1151.12C1488.94 1151.36 1488.53 1151.45 1488.12 1151.39H1456.94C1455.69 1151.39 1455.49 1151.39 1455.9 1149.93C1469.79 1112.89 1483.68 1076.04 1497.57 1039.37C1497.68 1038.98 1497.94 1038.65 1498.28 1038.43C1498.63 1038.21 1499.04 1038.13 1499.44 1038.19H1527.22C1527.67 1038.13 1528.13 1038.24 1528.5 1038.5C1528.87 1038.75 1529.14 1039.14 1529.24 1039.58C1543.13 1076.62 1556.88 1113.4 1570.49 1149.93C1571.32 1151.67 1570.9 1151.74 1569.79 1151.74L1569.58 1151.39ZM1633.47 1153.06C1632.23 1153.06 1630.99 1153.25 1629.79 1153.61H1619.38C1617.29 1152.99 1615.14 1153.06 1612.99 1152.57C1603.17 1150.95 1594.05 1146.49 1586.74 1139.73C1579.43 1132.98 1574.27 1124.24 1571.88 1114.58C1568.94 1105.47 1568.03 1095.82 1569.23 1086.31C1570.43 1076.81 1573.71 1067.68 1578.82 1059.58C1582.85 1053.14 1588.3 1047.69 1594.75 1043.66C1601.2 1039.63 1608.48 1037.12 1616.04 1036.32C1617.02 1036.34 1617.99 1036.15 1618.89 1035.76H1629.58L1636.53 1037.01C1643.77 1038.25 1650.6 1041.21 1656.45 1045.65C1662.3 1050.08 1667 1055.86 1670.14 1062.5C1672.82 1068.24 1674.4 1074.44 1674.79 1080.76C1674.79 1083.82 1674.79 1083.82 1671.94 1083.82H1644.17C1642.99 1083.82 1642.5 1083.82 1642.43 1082.29C1642.34 1078.07 1640.62 1074.04 1637.64 1071.04C1635.69 1069.16 1633.36 1067.73 1630.81 1066.83C1628.26 1065.93 1625.54 1065.59 1622.85 1065.83C1618.22 1066.08 1613.82 1067.89 1610.37 1070.97C1606.91 1074.05 1604.6 1078.21 1603.82 1082.78C1601.02 1092.35 1601.48 1102.59 1605.14 1111.87C1606.99 1116.84 1610.7 1120.88 1615.49 1123.15C1620.27 1125.42 1625.75 1125.73 1630.76 1124.03C1632.97 1123.4 1635 1122.26 1636.69 1120.7C1638.38 1119.15 1639.68 1117.22 1640.49 1115.07C1641.96 1111.68 1642.85 1108.06 1643.12 1104.37V1102.92C1643.12 1102.15 1643.12 1101.87 1644.17 1101.87H1674.31C1674.93 1101.87 1675.35 1101.87 1675.35 1102.85C1675.19 1113.98 1671.87 1124.85 1665.76 1134.17C1662.04 1139.42 1657.27 1143.85 1651.74 1147.16C1646.22 1150.47 1640.07 1152.6 1633.68 1153.4L1633.47 1153.06ZM1783.54 1151.32H1751.67C1751.46 1151.36 1751.24 1151.35 1751.03 1151.3C1750.82 1151.25 1750.62 1151.16 1750.45 1151.03C1750.28 1150.9 1750.14 1150.73 1750.04 1150.54C1749.94 1150.35 1749.88 1150.14 1749.86 1149.93C1747.64 1142.99 1745.28 1136.6 1742.92 1129.86C1742.85 1129.41 1742.61 1129.01 1742.24 1128.73C1741.88 1128.46 1741.42 1128.34 1740.97 1128.4C1731.6 1128.4 1722.29 1128.4 1713.19 1128.4C1712.76 1128.34 1712.32 1128.45 1711.97 1128.71C1711.62 1128.97 1711.39 1129.36 1711.32 1129.79C1709.03 1136.74 1706.6 1143.19 1704.38 1149.93C1704.29 1150.38 1704.03 1150.78 1703.65 1151.04C1703.28 1151.3 1702.81 1151.4 1702.36 1151.32H1669.86L1671.18 1147.71L1712.01 1039.65C1712.43 1038.61 1712.92 1038.12 1714.1 1038.19H1741.88C1742.29 1038.11 1742.72 1038.2 1743.07 1038.43C1743.42 1038.67 1743.67 1039.03 1743.75 1039.44C1757.64 1076.48 1771.41 1113.29 1785.07 1149.86C1785.21 1151.46 1784.72 1151.67 1783.75 1151.67L1783.54 1151.32ZM1908.12 1149.58C1908.12 1150.9 1908.13 1151.39 1906.46 1151.32H1877.99C1876.74 1151.32 1876.39 1151.32 1876.39 1149.79C1876.39 1135.28 1876.39 1120.83 1876.39 1106.32V1104.65L1870.97 1120.21L1861.11 1150.14C1860.76 1151.25 1860.28 1151.74 1859.03 1151.67H1837.36C1837.11 1151.72 1836.86 1151.72 1836.61 1151.67C1836.37 1151.62 1836.13 1151.52 1835.93 1151.37C1835.72 1151.23 1835.54 1151.05 1835.41 1150.84C1835.27 1150.62 1835.18 1150.39 1835.14 1150.14C1830.14 1135.69 1825.09 1121.25 1820 1106.81C1820 1106.81 1820 1106.11 1819.51 1105.49C1819.36 1106.03 1819.36 1106.61 1819.51 1107.15C1819.51 1121.04 1819.51 1135.62 1819.51 1149.93C1819.51 1151.32 1819.51 1151.74 1817.78 1151.67H1789.24C1788.06 1151.67 1787.78 1151.32 1787.78 1150.21C1787.78 1113.45 1787.78 1076.69 1787.78 1039.93C1787.78 1038.75 1788.19 1038.54 1789.31 1038.54H1826.39C1826.61 1038.5 1826.83 1038.51 1827.05 1038.56C1827.27 1038.6 1827.47 1038.7 1827.65 1038.83C1827.84 1038.95 1827.99 1039.12 1828.11 1039.31C1828.22 1039.5 1828.3 1039.71 1828.33 1039.93L1847.57 1096.6L1847.99 1097.78C1848.41 1097.26 1848.68 1096.64 1848.75 1095.97C1854.81 1077.45 1860.79 1058.94 1866.67 1040.42C1867.08 1039.03 1867.71 1038.68 1869.1 1038.68H1906.53C1907.85 1038.68 1908.12 1038.68 1908.12 1040.28V1149.58ZM1922.78 1040.35C1921.53 1040.35 1921.46 1040.76 1921.46 1041.74C1921.46 1044.17 1921.46 1046.6 1921.46 1049.03C1921.46 1050 1921.11 1050.14 1920.28 1050.14C1919.44 1050.14 1919.03 1050.14 1919.1 1048.96C1919.17 1047.78 1919.1 1046.46 1919.1 1045.14V1042.01C1919.1 1040.97 1919.1 1040.07 1917.64 1040.28C1916.18 1040.49 1917.08 1039.72 1917.01 1039.24C1916.94 1038.75 1917.01 1038.26 1917.71 1038.26H1922.78C1923.68 1038.26 1923.47 1038.82 1923.54 1039.31C1923.61 1039.79 1923.61 1040.83 1922.99 1040.69L1922.78 1040.35ZM1933.4 1050.21C1932.57 1050.21 1932.15 1050.21 1932.15 1049.03C1932.15 1047.85 1932.15 1045.21 1932.15 1043.26L1930.9 1048.89C1930.9 1049.51 1930.56 1049.93 1929.79 1049.93C1929.03 1049.93 1928.89 1049.51 1928.75 1048.96C1928.41 1047.09 1927.9 1045.25 1927.22 1043.47C1927.22 1045.28 1927.22 1047.08 1927.22 1048.89C1927.22 1050.69 1927.22 1050.21 1926.04 1050.21C1924.86 1050.21 1925.21 1049.37 1925.28 1048.89C1925.28 1045.69 1925.69 1042.57 1925.97 1039.44C1925.97 1038.89 1925.97 1038.19 1926.81 1038.26C1927.64 1038.33 1928.47 1038.26 1928.68 1039.31C1929.06 1041.52 1929.59 1043.7 1930.28 1045.83C1930.69 1043.82 1931.18 1041.81 1931.53 1039.72C1931.88 1037.64 1932.36 1038.12 1933.47 1038.26C1934.58 1038.4 1934.31 1038.26 1934.31 1039.17L1934.93 1049.1C1934.44 1050.07 1934.51 1050.56 1933.61 1050.56L1933.4 1050.21Z" fill="#97D700"/>
<path d="M258.958 752.639H205.208C198.055 751.881 190.877 753.812 185.069 758.056C180.599 763.611 178.436 770.672 179.028 777.778V825.208C178.436 832.314 180.599 839.376 185.069 844.931C190.855 849.224 198.044 851.182 205.208 850.417H258.958C266.122 851.182 273.311 849.224 279.097 844.931C283.568 839.376 285.731 832.314 285.139 825.208V811.736L256.389 805.556V826.389H207.778V777.014H256.389V794.792L285.139 790.208V777.778C285.731 770.672 283.568 763.611 279.097 758.056C273.29 753.812 266.111 751.881 258.958 752.639Z" fill="#97D700"/>
<path d="M473.611 826.181H401.597V811.181H443.056V787.986H401.597V775.764H472.708V752.639H372.847V850.417H473.611V826.181Z" fill="#97D700"/>
<path d="M556.736 752.639V850.417H652.986V826.181H585.486V752.639H556.736Z" fill="#97D700"/>
<path d="M728.125 752.639V850.417H824.306V826.181H756.875V752.639H728.125Z" fill="#97D700"/>
<path d="M916.667 850.417H973.542C980.706 851.182 987.895 849.224 993.681 844.931C998.151 839.376 1000.31 832.314 999.722 825.208V752.639H970.833V826.389H918.958V752.639H890.278V825.208C889.686 832.314 891.849 839.376 896.32 844.931C902.16 849.275 909.434 851.236 916.667 850.417Z" fill="#97D700"/>
<path d="M1090.07 752.639V850.417H1186.25V826.181H1118.75V752.639H1090.07Z" fill="#97D700"/>
<path d="M1281.81 830.833H1334.31L1344.93 850.417H1377.5L1321.46 752.639H1296.67L1241.11 850.417H1271.25L1281.81 830.833ZM1294.58 806.667L1308.47 782.153L1321.53 806.667H1294.58Z" fill="#97D700"/>
<path d="M1476.81 816.389H1491.11L1527.36 850.417H1569.79L1528.13 816.389H1529.37C1535.75 816.947 1542.1 815.197 1547.29 811.458C1549.45 809.409 1551.12 806.907 1552.19 804.133C1553.26 801.359 1553.69 798.381 1553.47 795.417V773.958C1553.67 770.803 1553.15 767.644 1551.95 764.72C1550.74 761.796 1548.89 759.185 1546.53 757.083C1541.43 753.754 1535.38 752.193 1529.31 752.639H1448.12V850.417H1476.81V816.389ZM1476.81 775.764H1520.83C1522.11 775.661 1523.39 775.851 1524.58 776.319C1525.21 776.806 1525.35 777.569 1525.35 779.028V790C1525.35 791.389 1525.35 792.153 1524.79 792.5C1523.65 792.991 1522.42 793.251 1521.18 793.264H1477.15L1476.81 775.764Z" fill="#97D700"/>
<path d="M1837.5 790V777.778C1838.09 770.672 1835.93 763.611 1831.46 758.056C1825.65 753.818 1818.47 751.887 1811.32 752.639H1757.57C1750.42 751.881 1743.24 753.812 1737.43 758.056C1732.96 763.611 1730.8 770.672 1731.39 777.778V825.208C1730.8 832.314 1732.96 839.376 1737.43 844.931C1743.22 849.224 1750.41 851.182 1757.57 850.417H1811.32C1818.48 851.169 1825.67 849.211 1831.46 844.931C1835.93 839.376 1838.09 832.314 1837.5 825.208V811.736L1808.75 805.764V826.389H1760.14V777.014H1808.75V794.792L1837.5 790Z" fill="#97D700"/>
<path d="M1945.63 830.833H1998.13L2008.75 850.417H2041.67L1985.63 752.639H1960.83L1905.28 850.417H1935.49L1945.63 830.833ZM1958.4 806.667L1971.94 782.153L1985 806.667H1958.4Z" fill="#97D700"/>
<path d="M2237.08 850.417V752.639H2222.43L2222.64 750.764L2221.94 752.639H2214.65L2175.07 804.514L2134.65 752.639H2111.74V850.417H2136.67V795.694L2169.51 839.583H2177.57L2210.07 796.319V850.417H2237.08Z" fill="#97D700"/>
<path d="M2425.49 775.764V752.639H2325.62V850.417H2426.39V826.181H2354.37V811.181H2395.83V787.986H2354.37V775.764H2425.49Z" fill="#97D700"/>
<path d="M2591.04 816.389C2597.41 816.947 2603.77 815.197 2608.96 811.458C2611.11 809.409 2612.78 806.907 2613.85 804.133C2614.92 801.359 2615.36 798.381 2615.14 795.417V773.958C2615.34 770.803 2614.82 767.644 2613.61 764.72C2612.41 761.796 2610.56 759.185 2608.19 757.083C2603.1 753.754 2597.04 752.193 2590.97 752.639H2509.58V850.417H2538.26V816.389H2552.57L2588.82 850.417H2631.25L2589.58 816.389H2591.04ZM2538.26 775.764H2581.94C2583.22 775.661 2584.5 775.851 2585.69 776.319C2586.32 776.806 2586.46 777.569 2586.46 779.028V790C2586.46 791.389 2586.46 792.153 2585.9 792.5C2584.79 792.993 2583.58 793.253 2582.36 793.264H2538.26V775.764Z" fill="#97D700"/>
<path d="M2731.74 752.639L2676.18 850.417H2706.32L2716.6 830.833H2769.1L2779.72 850.417H2812.5L2756.39 752.639H2731.74ZM2756.25 806.667H2729.65L2743.19 782.153L2756.25 806.667Z" fill="#97D700"/>
</svg>
